<svg xmlns="http://www.w3.org/2000/svg" viewBox="0 0 400 400" height="400" width="400"><g fill="#000000"><path d="M152.98 156.84c4.54 -0.3 5.48 -5.36 4.96 -4.58 -3.3 5.38 -10.46 3.52 -11.12 -3.9h-0.14a6.58 6.58 0 0 0 6.3 8.48zM147.08 130c0.9 -0.32 1.16 -2 0.82 -3s-1.46 -2.24 -2.36 -2 -1.38 1.88 -1 3.08 1.66 2.24 2.54 1.92zm17.64 -3.78c0.88 -0.34 1.14 -2 0.8 -3.02s-1.44 -2.22 -2.34 -2 -1.4 1.86 -1.02 3.04 1.64 2.3 2.56 1.98zm1.06 14.14a0.94 0.94 0 0 1 -0.28 1.08c-0.52 0.3 -6.32 3.02 -6.12 2.9v0.14a32 32 0 0 0 6 -1.56 2.34 2.34 0 0 0 1.64 -3.1c-0.24 -0.54 -1.7 -2.68 -1.56 -2.48a42.16 42.16 0 0 0 -7.32 -8.32s7.2 10.62 7.64 11.34zM222 280.84a102.78 102.78 0 0 0 -13.66 18c-0.42 0.56 0 1.2 0.7 1.3a56.66 56.66 0 0 0 19.34 -1.72 1.04 1.04 0 0 0 0.68 -1.22c-0.42 -4.52 -4.46 -14 -5.66 -16.24a0.82 0.82 0 0 0 -1.4 -0.12zm120.64 -152.96c-0.14 0 -4.98 -0.2 -12.14 -0.36L316 108.56a3.08 3.08 0 0 0 -2 -5.18 3 3 0 0 0 -2.64 4.36l-16.52 19.64c-4.24 0.1 -8.32 0.26 -12 0.5a3.42 3.42 0 0 0 -3.26 2.8 2.56 2.56 0 0 0 -1.02 2v46.62a2.56 2.56 0 0 0 2.56 2.56c7.26 0 49.84 -0.46 59.8 -0.38a2.52 2.52 0 0 0 1.78 -0.74 3.32 3.32 0 0 0 3.3 -3.32v-46.2a3.32 3.32 0 0 0 -3.36 -3.34zm-30.44 -18.92a3.02 3.02 0 0 0 2.48 0.4l13.84 18.12c-8.92 -0.2 -20.8 -0.34 -31.76 -0.14zm32.22 68.46a1.7 1.7 0 0 1 -1 1.58c-0.92 0.44 3.2 0 -60.6 0.62a1.8 1.8 0 0 1 -1.82 -1.82V131.22a2 2 0 0 1 1.88 -1.82c16.22 -1.12 50.74 -0.5 59.72 0a1.82 1.82 0 0 1 1.82 1.82z" stroke-width="2"></path><path d="M313 135.5a3.48 3.48 0 0 0 -2.92 1.52c6.36 1.78 11.66 6.68 12 13.28a14.7 14.7 0 0 0 8.26 13.24c1.02 -0.92 2 -2.88 2 -7.16 -0.1 -6.9 -7.06 -20.68 -19.34 -20.88z" stroke-width="2"></path><path d="M320.58 150.44a12.32 12.32 0 0 0 -4.16 -8.78 20 20 0 0 0 -6.56 -4.2c-2 2.88 -2.26 12.14 4.24 19.68 5.5 6.42 9.68 7.76 12.22 7.76A8 8 0 0 0 330 164a14.46 14.46 0 0 1 -9.42 -13.56zm-24.18 18.9a11.46 11.46 0 0 1 2.54 -5.88 10.74 10.74 0 0 0 0.98 -10.98h-0.12a12.82 12.82 0 0 0 -7.08 11.06c-0.34 4.4 0.56 10.24 4.52 10.6a11.52 11.52 0 0 1 -0.84 -4.8z" stroke-width="2"></path><path d="M300.28 152.34a10.56 10.56 0 0 1 1.54 8.78c-1.36 4.48 -5.54 5.66 -4.12 13.04 5.64 -0.18 12 -13.72 4.9 -21.14a2.44 2.44 0 0 0 -2.32 -0.68zm38.38 190.76c-2.98 -2.34 -7.76 -2.78 -11.38 -3.18 -2.36 -0.28 -4.7 -0.46 -7.04 -0.6 0.3 -2.84 1.48 -19.04 -1.24 -20a21.5 21.5 0 0 0 -6.1 -0.44c-4.14 -0.1 -8.32 0 -12.46 0.32a27.52 27.52 0 0 0 -5.74 0.36c-0.82 0.2 -1.02 0.82 -1.2 1.58a39.48 39.48 0 0 0 -0.46 6c-6 -2.52 -7.78 4 -5.44 6.96a6.68 6.68 0 0 0 5.58 1.88c0 0.32 0.22 3 0.28 3.14a64 64 0 0 0 -12 1.14 9.74 9.74 0 0 0 -5.24 2c-2.9 0.62 -12.38 5.38 14 9.12a116 116 0 0 0 32.88 0c4.4 -0.62 9.36 -0.86 13.46 -2.66 2.04 -0.88 4.94 -3.72 2.1 -5.62zm-50.56 -13.8a2.4 2.4 0 0 1 1.4 -1.52 5.08 5.08 0 0 1 3.48 0.52c0 1.86 0 4.4 0.12 6.38 -3.92 0.6 -6.38 -1.94 -5 -5.38zm6.36 -8.7c2.18 1.84 26.12 1.46 24.66 -0.3 0.24 0 0.2 0.34 0.26 0.7a61.4 61.4 0 0 1 0.12 9.2 72 72 0 0 1 -0.7 9.5c-0.26 1.72 -0.46 5.3 -2.82 5.46a81.28 81.28 0 0 1 -16.32 -0.54c-2 -0.36 -4.26 -1.18 -4.62 -3.44 -0.6 -4.06 -1.62 -17.5 -0.58 -20.58zm43.72 25.4c-4.58 6.52 -55.1 4.54 -61.4 -2.14 -0.26 -0.38 -0.28 -0.42 0 -0.76 1.84 -2.62 13.56 -3.4 16.76 -3.56 0.26 2.14 0.4 2.7 0.36 2.5 -6.88 0 -8 2 5.84 4 3.8 0.58 23.16 2.22 23.82 -1.14 0.26 -1.3 -1.72 -2 -3.84 -2.42a18 18 0 0 0 0.42 -2c4.4 0.36 14.14 1.14 17.7 3.68a1.28 1.28 0 0 1 0.34 1.84z" stroke-width="2"></path><path d="M389.76 294.5c-3.62 0.14 -7.24 0.18 -10.86 0.24v-0.14c-1.76 -69.64 -1.16 -234.74 -11.74 -238.76 -30.84 -11.68 -262.24 -11.62 -292.38 2.86 -14.2 6.8 -7.18 80.54 -6 150.68 0.12 0.82 -9.54 8.5 -19.5 29.38 -10.16 21.52 -14.26 43.64 -13.8 56.98 -8.44 0 -16.9 0 -25.3 0.8a0.26 0.26 0 1 0 0 0.5c8.44 0.32 16.92 0 25.34 0 0.18 4.66 1.04 10.38 4 14 3.32 4.16 9.54 4.56 14.44 5.28 8 1.04 17.04 1.54 25.2 1.84 44 25.08 40.62 23.36 41.9 23.38l141.62 -7.02a2.14 2.14 0 0 0 2 -1.2l16 -36.44c17.32 -0.66 34.62 -0.74 52 -0.82 -1.2 18 -1.62 24.44 -1.78 26.68 -3.46 0.38 -5.78 1.02 -5.78 1.74 0 2.64 25.56 3.04 25.56 -0.52l-3.26 -28c14.2 -0.16 28.34 -0.38 42.48 -1.08a0.26 0.26 0 0 0 -0.14 -0.38zM75.46 60c13.18 -6.34 70.2 -10.68 145.28 -11.1h30.76c0.34 46.16 2.78 155.78 2.92 164.42 -21.06 -20.54 -52.28 -33.86 -80 -38.38l-3.04 -14.64c4.82 -2.66 6.94 -8 7.1 -13.56 0.42 -12.38 -5.4 -26.66 -11.02 -37.72 7.14 -1.82 13.36 -6.12 14.14 -15.36 2 -22.82 -23.5 -13.76 -34 -2.76 0 0 -9.68 -2.74 -16.3 4.14a115.36 115.36 0 0 0 -10.58 12.36s-8.84 1.38 -9.68 9.08v0.24a27.86 27.86 0 0 0 3.72 16.98l14.18 24 1.74 18.44C110 178.96 87.7 190 70.4 208c-1.26 -65.7 -7.92 -141.7 5.06 -148zm123.08 162.4a2.54 2.54 0 0 0 -1.44 4.44c0.58 0.62 11.86 9.4 11.66 9.24a0.48 0.48 0 0 1 0.18 0.64l-4.94 6.32c-6 0.3 -11.84 0.66 -17.46 1.08l-7 -66.56a174.82 174.82 0 0 1 29.44 8.98l-1.1 32.92 -9.44 2.96zm11.52 14.98a1.8 1.8 0 0 0 -0.4 -2.36c-12 -10 -11.68 -9.5 -11.6 -10.3a1.24 1.24 0 0 1 0.9 -0.54l9.46 -2.86a1.88 1.88 0 0 0 1.42 -1.42c0 -0.56 0.7 -32.96 0.68 -32.76a147.06 147.06 0 0 1 26.38 14.1 110.74 110.74 0 0 1 34.8 36.92 32 32 0 0 1 1.7 3c-20.98 0.18 -45.46 0.68 -68 1.82zm-83.1 -13.58C120.82 214.76 102 198.16 93.7 191.06A102.44 102.44 0 0 1 127.06 178c6.8 44.6 14.3 93.88 14.3 93.66 -3.4 -8.34 -10 -17.24 -16 -24 -4.36 -5.04 -9.06 -9.8 -8.88 -9.6a2.56 2.56 0 0 1 0.48 -3.58c9.9 -7.66 9.68 -7.12 10.12 -8.44a2.74 2.74 0 0 0 -0.12 -2.24zm4.88 -46.5c0.2 0 -3.42 -33.3 -3.48 -33.72h-0.26c-1.04 -0.52 -6.42 -3.36 -3.42 -7.34 3.32 -4.42 6.36 2.74 8.58 -0.82s-4.7 -13.22 -1.1 -16.52 12.44 -0.54 12.44 -9.64a59.36 59.36 0 0 0 22.42 0 158.9 158.9 0 0 1 7.86 22.14c2 6.96 3.44 16.14 0.46 22.72a11.32 11.32 0 0 1 -5.58 5.48l3.52 16.8c0.22 0 1.76 40.72 -13 35.22 -14.4 -5.32 -27.58 -32.48 -28.44 -34.32zm-46.66 140.28c-10 -0.4 -21.04 -0.96 -30.98 -2.32 -4 -0.62 -9.3 -1.02 -12.52 -3.78 -4.64 -4 -5.02 -11.14 -4.94 -16.72 0.68 -28.78 14 -63.9 33.64 -84.74a112.38 112.38 0 0 1 22.18 -18.26C104 202 117.02 214.3 124 223.26c2.16 2.76 -0.46 3.76 -2.54 5.4L116 232.94c-4.14 3.24 -0.12 6.96 2.34 9.44 8.44 8.96 18.86 19.62 23.4 31.66l1.62 10.54 -4 9.16c-13.26 -8 -30.46 -13.34 -45.56 -16 1.12 -2.86 10.58 -28.54 9.38 -26.78 -11.54 28.56 -10.66 26.58 -10.88 26.52 0.12 0.22 0.16 0 -0.36 1.32l1.24 0.24c0.26 -0.42 27.04 5 45.76 15.42l-10 23.58c-16.58 0.16 -44.94 -0.5 -43.76 -0.46zm180 10.58a0.98 0.98 0 0 1 -0.9 0.58l-139.62 6.78a0.94 0.94 0 0 1 -0.92 -0.92l36.52 -85.88a1.22 1.22 0 0 1 1.02 -0.56c37.78 -5.1 102.14 -5.66 140 -5.6a0.92 0.92 0 0 1 0.8 1.3zm84.2 -4.16c0 0.48 -3.6 1.3 -8.78 1.3 -5.52 0 -8.48 -0.84 -8.76 -1.14s3.04 -45.4 3.2 -47.8a23.4 23.4 0 0 0 8.76 0c0.3 2.6 5.38 45.9 5.58 47.64zm28 -29.18c-10 0.16 -20.18 0.18 -30.28 0.16 -0.6 -5.32 -1.34 -11.62 -2.22 -19.08a0.78 0.78 0 0 0 0.28 -0.66c0 -0.4 0 -1.42 -4.46 -1.56a165.74 165.74 0 0 1 5.64 -29.68 8.42 8.42 0 0 1 4 -2c8.68 0.78 10.74 -6 10.74 -6 -5.58 -1.68 -9.18 3.26 -10.34 5.18a7.68 7.68 0 0 0 -4 1.32 70 70 0 0 1 7.84 -17.84c15.88 -2.74 16.58 -15.78 16.58 -16v-0.58H370c-8.88 0 -14.52 8 -16.28 16.3 0 0.52 -7.26 9.32 -12 33.3 -2.82 13.88 -1.4 14.26 -2.28 2.6 -0.62 -8.64 -2.36 -19.46 -6.2 -27.28 -0.42 -7.22 -4.32 -14.4 -11.9 -15.1h-0.58c-0.48 6 3.2 12.32 11.46 14.9a68 68 0 0 1 5.54 22.8 11.5 11.5 0 0 0 -5 -3.76c-5.06 -4 -11.82 0.62 -11.82 0.62 6.6 4.5 11.42 1.08 12.44 0.26a13.68 13.68 0 0 1 4.5 4 136 136 0 0 1 0.44 16.66c-1.8 0 -5.08 0.32 -4.36 2 -0.5 7.56 -0.92 14 -1.28 19.32 -17.14 0 -34.3 0 -51.42 0.66l22.4 -51.1a2.44 2.44 0 0 0 -2.24 -3.42h-27.06a36.78 36.78 0 0 0 -1.72 -3.44 85.8 85.8 0 0 0 -17 -23.04 0.7 0.7 0 0 0 0.2 -0.52c-0.7 -46.2 -3.62 -156.26 -3.82 -165.08 57.58 0.6 102.78 3.72 114.66 8.22 10 4.12 9.7 234.06 10.72 237.78zM362.6 216a80.5 80.5 0 0 0 -7 6.14c2.3 -6.94 7.02 -12.7 14.38 -12.74 -0.3 2.36 -2.28 11.12 -13.82 13.88 4 -4.2 4.8 -4.16 6.64 -7.06a0.14 0.14 0 0 0 -0.2 -0.22zm-36.86 8a44.68 44.68 0 0 1 3.2 4.26c0.74 0.98 1.46 2 2.16 2.98 -8.54 -3.3 -9.28 -10 -9.3 -12 6.96 0.98 9.18 7.64 9.9 11.1a1.4 1.4 0 0 0 0 0.28 21.88 21.88 0 0 0 -2.28 -3 19.78 19.78 0 0 0 -3.54 -3.88c-0.08 -0.04 -0.28 0.26 -0.14 0.38z" stroke-width="2"></path><path d="M201.02 132.86c-0.2 -0.12 -0.36 0.16 -0.18 0.3 10.58 8 21.78 15.06 32.64 22.6 0 0 0.14 0 0 -0.12a393.3 393.3 0 0 0 -32.46 -22.78zm32.56 0s0.14 0 0 -0.14c-10.54 -8 -21.28 -16 -32.54 -22.78 -0.2 -0.12 -0.36 0.18 -0.18 0.3 10.68 7.92 21.96 14.94 32.72 22.62zm13.24 21.48v-0.14q-11.66 -8.64 -23.46 -17.1c-11.16 -8 -22.14 -16.52 -34 -23.62 -0.2 -0.12 -0.34 0.16 -0.18 0.3 18.82 14.08 38.44 27.14 57.64 40.56z" stroke-width="2"></path></g></svg>