<?xml version="1.0" standalone="no"?>
<!DOCTYPE svg PUBLIC "-//W3C//DTD SVG 20010904//EN">
<svg version="1.0" xmlns="http://www.w3.org/2000/svg"
 width="1300.000000pt" height="1300.000000pt" viewBox="0 0 1300.000000 1300.000000"
 preserveAspectRatio="xMidYMid meet">

<g transform="translate(0.000000,1300.000000) scale(0.100000,-0.100000)"
fill="#000000" stroke="none">
<path d="M5850 11740 c-162 -4 -324 -12 -360 -19 -209 -39 -400 -122 -400
-175 0 -21 -10 -26 -147 -61 -133 -33 -376 -105 -428 -126 -245 -97 -463 -257
-452 -332 4 -27 -3 -34 -112 -107 -185 -123 -348 -278 -401 -380 -7 -14 -50
-63 -95 -110 -88 -92 -125 -143 -145 -204 -10 -32 -10 -40 2 -53 13 -13 20
-13 53 1 21 9 40 14 43 11 3 -2 -26 -37 -64 -77 -89 -94 -160 -180 -248 -298
-38 -52 -102 -129 -140 -171 -117 -125 -285 -377 -344 -516 -50 -117 -70 -276
-38 -302 20 -16 49 0 73 39 15 27 33 40 33 24 0 -3 -18 -37 -41 -75 -77 -133
-105 -255 -74 -331 9 -24 30 -95 45 -158 39 -158 84 -278 133 -352 44 -68 47
-91 28 -178 -24 -112 0 -239 96 -502 64 -176 106 -350 127 -528 9 -69 27 -165
42 -215 35 -120 88 -281 108 -327 l16 -38 -57 0 c-92 0 -152 -50 -195 -162
-36 -92 -35 -199 1 -373 44 -206 57 -294 91 -614 62 -583 94 -713 223 -887 54
-73 92 -98 174 -115 l62 -13 6 -40 c17 -113 82 -421 121 -580 49 -196 124
-409 182 -520 101 -193 350 -517 605 -786 216 -229 457 -415 702 -543 373
-194 543 -261 760 -298 39 -6 126 -25 195 -41 107 -25 157 -31 349 -39 188 -7
237 -7 298 6 39 8 100 15 133 15 87 0 205 32 435 116 223 82 284 110 430 192
247 139 319 196 624 497 374 368 659 721 785 970 51 102 117 281 147 400 11
44 29 103 39 132 11 28 24 87 29 130 5 43 23 148 40 233 45 233 119 751 156
1090 9 80 20 153 25 162 6 10 10 62 10 117 0 67 8 141 25 226 14 69 39 203 55
298 45 275 67 356 104 391 17 16 50 38 74 48 40 18 45 18 68 3 14 -9 30 -28
35 -43 17 -42 3 -196 -36 -412 -19 -107 -46 -294 -60 -415 -41 -357 -64 -553
-81 -663 -47 -322 -136 -492 -257 -492 -39 0 -57 -15 -57 -46 0 -25 34 -54 64
-54 77 0 173 72 225 169 86 162 108 282 201 1101 21 185 29 231 71 455 16 84
23 159 23 250 1 120 -1 133 -23 169 -42 67 -115 93 -185 66 -33 -12 -33 -5 -1
89 38 114 49 222 40 421 -16 374 -13 447 28 638 82 385 150 809 162 1003 10
170 -21 392 -66 482 -11 21 -18 41 -15 44 3 3 41 -11 85 -32 106 -50 137 -37
112 46 -22 74 -112 153 -224 199 -31 13 -56 27 -55 31 2 4 26 25 55 48 93 73
150 180 160 301 3 48 1 70 -10 84 -20 27 -39 16 -87 -49 -23 -31 -43 -55 -45
-53 -2 2 3 30 11 63 7 33 14 92 14 130 0 39 7 104 16 145 21 97 14 224 -16
302 -30 82 -97 166 -167 213 -33 22 -73 57 -89 78 -52 69 -380 383 -506 484
-395 314 -739 477 -1038 489 -93 4 -115 9 -210 45 -150 59 -412 145 -500 164
-47 10 -159 20 -300 25 -134 5 -257 15 -305 24 -197 40 -548 57 -975 46z
m1346 -2865 c49 -9 188 -49 309 -90 364 -122 484 -145 756 -145 139 0 143 -1
233 -36 98 -39 180 -94 219 -146 13 -18 50 -80 82 -138 32 -58 75 -134 95
-170 27 -47 47 -103 71 -200 31 -129 33 -145 35 -357 3 -209 5 -227 29 -300
30 -90 68 -144 198 -281 92 -97 92 -98 125 -202 17 -57 28 -108 24 -112 -5 -5
-55 5 -113 22 -106 30 -241 60 -382 85 -72 13 -84 19 -157 77 -147 119 -249
165 -446 204 -208 42 -938 -2 -1350 -81 -94 -18 -130 -30 -166 -54 -25 -17
-48 -37 -51 -44 -3 -7 1 -49 8 -92 7 -44 10 -83 6 -87 -10 -11 -144 -28 -268
-34 -103 -5 -308 8 -321 21 -3 2 0 37 6 76 12 83 8 95 -45 131 -92 63 -648
133 -1148 145 -288 6 -350 0 -537 -58 -120 -36 -240 -114 -373 -240 l-90 -87
-110 -22 c-157 -31 -199 -43 -299 -85 -49 -20 -92 -33 -96 -28 -13 13 28 152
70 238 22 44 61 119 88 168 66 117 135 329 168 507 44 241 78 361 139 488 69
144 166 291 242 369 87 87 285 232 398 290 335 171 866 221 1300 120 71 -16
124 -21 250 -21 182 0 235 10 455 90 249 92 439 114 646 79z m1337 -2174 c90
-31 213 -100 268 -149 54 -48 118 -135 143 -195 54 -129 44 -441 -19 -627 -52
-153 -102 -238 -194 -330 -153 -152 -330 -221 -637 -250 -212 -19 -481 13
-649 79 -152 59 -249 124 -381 255 -134 134 -178 199 -245 362 -58 142 -80
233 -82 344 -3 172 53 292 176 384 46 34 53 36 123 36 91 0 206 12 474 50 420
59 545 69 796 64 136 -3 182 -8 227 -23z m-3603 -22 c63 -6 223 -26 354 -44
132 -19 296 -40 365 -46 147 -13 188 -27 251 -89 94 -91 144 -251 121 -387
-32 -195 -105 -392 -199 -533 -54 -80 -210 -250 -231 -250 -5 0 -32 -18 -61
-41 -78 -62 -184 -115 -316 -158 -168 -55 -238 -64 -484 -65 -202 -1 -222 1
-330 27 -297 72 -465 231 -570 540 -49 142 -64 248 -57 391 6 123 24 185 82
284 85 146 311 282 587 352 143 37 247 41 488 19z m4437 -411 c16 -15 23 -33
23 -61 0 -21 7 -94 15 -161 21 -166 34 -647 24 -842 -9 -174 -13 -208 -100
-844 -47 -338 -90 -532 -189 -845 -40 -128 -134 -371 -181 -470 -35 -74 -150
-257 -204 -325 -70 -89 -518 -508 -695 -651 -128 -103 -325 -214 -470 -265
-36 -12 -107 -41 -158 -63 -294 -130 -827 -261 -1059 -261 -235 0 -760 136
-1078 280 -38 17 -105 45 -148 60 -74 28 -215 99 -321 163 -138 84 -481 371
-617 518 -125 136 -148 165 -223 287 -213 347 -331 690 -425 1232 -126 725
-171 1205 -171 1806 0 264 3 294 33 294 62 0 170 -183 232 -390 51 -175 98
-279 177 -396 190 -281 482 -396 971 -381 113 3 211 12 284 26 313 59 572 210
786 461 55 63 58 77 -43 -160 -85 -201 -170 -455 -170 -509 0 -40 5 -49 48
-90 59 -57 244 -151 366 -186 163 -46 286 -31 495 60 42 18 122 50 179 71 60
22 108 46 113 56 14 25 -6 58 -34 58 -30 0 -167 -47 -287 -98 -211 -89 -294
-100 -445 -56 -130 38 -335 144 -349 181 -4 9 18 88 48 177 56 166 120 320
271 651 144 316 215 482 215 501 0 25 -10 37 -38 49 l-23 10 20 26 c26 33 84
61 127 61 18 0 58 -11 88 -25 69 -32 113 -95 161 -228 43 -121 122 -298 144
-324 10 -11 47 -60 82 -110 98 -138 186 -224 310 -305 302 -197 660 -259 1089
-190 335 55 548 173 691 383 40 58 77 128 94 175 15 42 43 117 62 166 20 51
38 121 43 164 10 92 67 215 136 291 51 57 67 61 101 29z m-6207 -186 c23 -19
27 -40 69 -337 11 -77 29 -202 40 -277 12 -75 27 -212 36 -305 8 -92 22 -224
31 -293 14 -114 25 -195 80 -594 18 -124 18 -129 0 -142 -16 -11 -23 -11 -46
1 -66 34 -153 174 -189 305 -29 102 -65 355 -96 655 -27 273 -41 369 -80 547
-14 65 -25 125 -25 134 0 27 28 -2 56 -58 45 -90 55 -149 64 -418 9 -255 26
-401 57 -495 25 -78 41 -97 77 -93 38 4 45 31 21 90 -31 77 -56 268 -65 498
-9 233 -19 317 -45 391 -21 58 -57 118 -90 149 -26 24 -27 24 -57 7 l-31 -18
6 66 c7 71 35 146 69 182 27 28 86 31 118 5z m3020 -32 c-7 -17 -15 -28 -18
-26 -2 3 1 19 8 36 7 17 15 28 18 26 2 -3 -1 -19 -8 -36z"/>
<path d="M7684 6486 c-167 -32 -352 -113 -492 -215 -93 -68 -115 -108 -73
-130 15 -9 31 -1 87 40 76 56 167 111 223 135 62 27 169 62 174 58 3 -3 1 -21
-4 -41 -29 -130 91 -247 251 -246 36 1 81 8 101 17 108 46 161 149 128 245 -6
18 -9 35 -6 38 3 3 48 -7 99 -21 90 -26 225 -86 319 -142 55 -33 99 -29 99 9
0 32 -29 56 -131 111 -104 56 -224 101 -339 127 -112 26 -339 34 -436 15z"/>
<path d="M4767 6435 c-162 -28 -291 -82 -443 -183 -102 -69 -157 -122 -152
-147 4 -25 35 -42 51 -30 8 6 45 34 83 62 38 29 105 73 149 98 81 45 231 102
242 91 4 -3 1 -17 -5 -31 -19 -42 -14 -106 11 -147 79 -132 299 -156 416 -45
59 57 78 136 45 198 -8 17 -13 34 -9 37 20 21 251 -62 373 -134 78 -47 111
-54 132 -29 22 27 -3 57 -83 104 -109 62 -221 108 -334 138 -121 32 -350 41
-476 18z"/>
<path d="M5995 4190 c-253 -66 -715 -303 -928 -478 -91 -74 -113 -104 -147
-206 -39 -114 -26 -145 37 -93 96 80 217 151 390 227 334 148 637 254 759 265
62 6 76 4 143 -24 91 -38 142 -40 205 -6 54 29 113 32 178 11 24 -8 91 -26
150 -40 136 -32 327 -96 543 -181 219 -87 290 -121 398 -191 48 -31 91 -54 94
-50 3 3 5 27 4 52 -5 139 -107 232 -485 441 -425 235 -631 306 -789 269 -35
-8 -87 -24 -116 -35 -68 -28 -79 -27 -202 13 -142 45 -154 47 -234 26z"/>
<path d="M5452 3538 c-19 -19 -14 -55 10 -77 31 -30 162 -95 250 -125 197 -67
393 -97 648 -97 282 -1 536 39 763 121 105 38 130 64 102 106 -11 17 -23 24
-33 21 -10 -3 -69 -24 -132 -46 -217 -75 -421 -106 -700 -105 -345 1 -637 66
-819 183 -52 34 -70 38 -89 19z"/>
<path d="M6795 2804 c-40 -10 -157 -17 -345 -23 -281 -7 -297 -7 -525 25 -45
6 -48 5 -35 -9 19 -19 139 -62 250 -89 176 -44 426 -21 641 58 138 51 145 69
14 38z"/>
<path d="M9741 5871 c-32 -44 -76 -147 -91 -210 -10 -40 -11 -92 -4 -200 14
-249 10 -333 -20 -475 -16 -71 -37 -154 -47 -184 -24 -71 -24 -99 2 -112 31
-17 64 10 83 67 9 26 30 111 47 188 36 162 42 308 22 510 -15 141 -5 197 53
324 41 89 41 115 2 119 -19 2 -31 -4 -47 -27z"/>
</g>
</svg>
