<svg xmlns="http://www.w3.org/2000/svg" viewBox="0 0 400 400" height="400" width="400"><g fill="#000000"><path d="M54 51.08a0.54 0.54 0 1 0 0 1.06 39.7 39.7 0 0 0 15 -3.68c1 -0.46 3 -1.34 2.24 -2.18S65.78 50 54 51.08zm14.96 2.18c-3.24 0.76 -4 0.98 -12.9 3.86a0.72 0.72 0 0 0 0.16 1.4 0.36 0.36 0 0 0 0.32 0c10 -3.22 10.14 -3.06 12.86 -4.2 0.6 -0.2 0.16 -1.2 -0.44 -1.06zm-27.2 62.98c0.24 0 -0.84 0.42 16.46 -6.84a18.68 18.68 0 0 0 4.96 -2.42 0.64 0.64 0 0 0 -0.52 -1.06c-2.32 0.5 -0.58 0 -21.1 8.58a0.9 0.9 0 0 0 0.2 1.74zm17.52 -3.94c-3.82 1.42 -7.48 3.12 -11.38 4.8 -1.06 0.48 -0.1 2 0.82 1.56 3.9 -1.74 7.54 -3.28 11.16 -5.14a0.7 0.7 0 0 0 -0.6 -1.22zm-23.92 16.18c1.4 0 24.26 -9.48 25.54 -10a10.66 10.66 0 0 0 3.06 -1.6 0.64 0.64 0 0 0 -0.48 -1.12 11.56 11.56 0 0 0 -3.58 1.16c-8.66 3.6 -13.22 5.42 -24.8 10.82 -0.42 0.26 -0.18 0.8 0.26 0.74zm25.76 -6.88c-2.7 0.86 -2.2 0.2 -21.3 9.78 -0.66 0.32 -0.26 1.26 0.36 1.26a0.28 0.28 0 0 0 0.28 0c19.66 -8.82 18.98 -8.54 21.22 -9.88a0.66 0.66 0 0 0 -0.56 -1.16zM38.56 170.6c0.72 0.32 1.42 -1.68 9.38 -4.56a17.18 17.18 0 0 0 3.12 -1.18 0.66 0.66 0 0 0 -0.34 -1.26 30.72 30.72 0 0 0 -12.26 6 0.58 0.58 0 0 0 0.1 1zm0.94 4.14c0.32 0.2 0.6 -0.2 5.38 -2a48.42 48.42 0 0 0 5.26 -1.84 0.58 0.58 0 0 0 -0.34 -1.06 24.98 24.98 0 0 0 -10.44 4c-0.26 0.16 -0.3 0.6 0.14 0.9zm10.92 0.1c-1.26 0.46 -0.86 0.4 -10.56 5.72 -1 0.54 0 2 0.86 1.48 9.84 -5.64 9.32 -5.1 10.44 -6a0.74 0.74 0 0 0 -0.74 -1.2zm198.28 -56.74c0.98 0.32 1.5 -0.84 2.34 -2s0 -2.12 -0.76 -1.84c-0.3 0 -1.14 1.04 -1.32 1.3 -0.8 1.04 -0.86 1.1 -0.9 1.34a0.98 0.98 0 0 0 0.64 1.2zm11.08 0.24c0.72 0 0.84 -0.26 2.14 -2.74 0.32 -0.58 0.62 -1.16 0.4 -1.6a0.76 0.76 0 0 0 -1.24 -0.18 21.3 21.3 0 0 0 -2 2.86 0.98 0.98 0 0 0 0.7 1.66zm-9.94 16.52c5.54 1.54 8.56 -6 6.3 -6a19.08 19.08 0 0 1 -5.88 0.82 0.58 0.58 0 0 0 0 1.12 18 18 0 0 0 4.94 -0.26 4.24 4.24 0 0 1 -3.34 2.54h-2c-0.36 0 -1.42 0.92 -0.02 1.78zM125.86 148a6.46 6.46 0 0 0 0.48 2.46c0.42 1.52 1.38 1.74 2 1.16s0 -2.34 -0.6 -3.62a2 2 0 0 0 -0.3 -0.64c0 -0.36 -0.58 -0.74 -1.1 -0.52s-0.7 0.94 -0.48 1.16zm103.78 65.02c0.52 0 2.16 -2.88 2.44 -3.62s0.44 -0.88 0 -1.34a0.8 0.8 0 0 0 -1.26 0c-0.7 0.72 -2.68 3.44 -2.5 4.34a0.8 0.8 0 0 0 1.12 0.7zm99.68 -115.44c-2 -0.8 -11.8 -4.2 -14.34 -5.22 -3.8 56.98 -3.66 52.54 -2.94 57.44a10.92 10.92 0 0 0 6.14 6.8c3.38 2 5.88 3.02 8.76 4.54 2.7 -45.72 1.68 -55.48 2.38 -63.56zM266 325.36z" stroke-width="2"></path><path d="M390.24 224.62a19.08 19.08 0 0 0 -0.42 -5 5.36 5.36 0 0 0 0 -2.52c-1.36 -5.28 -11.3 -26.18 -13.64 -31.2 1.9 -5.1 8.42 -79.22 8.76 -149.1a9.28 9.28 0 0 0 -0.92 -5.16 9.02 9.02 0 0 0 -4.72 -3.08c-32 -12 -48.92 -13.9 -52 -14.56a33.32 33.32 0 0 0 -7.3 -0.88c-3.62 0.1 -6 1.5 -6.5 5.5 -1.1 8.24 -2.46 34.54 -8 116.78a89 89 0 0 0 -15.5 -4.72c4.72 -4.64 3.84 -0.48 3.48 -18.46a1.08 1.08 0 0 0 -0.12 -0.8c-0.32 -0.44 -0.42 -0.3 -4.56 0.16 4.28 -44.54 4 -45.66 2.24 -48.2a13.04 13.04 0 0 0 -4.74 -3.02c-4.62 -2.26 -8.88 -4.4 -14.16 -6.58C221 32 150.66 39.06 110.22 64.32c-2.8 1.78 -4.28 2 -3.82 5.58 -0.14 0.94 -0.46 -3 3.42 51.12a28.78 28.78 0 0 0 -13.48 3.54c-4 -60.46 -5.18 -82.28 -6.14 -90 -0.2 -1.7 -0.2 -5.02 -5 -5.78a34 34 0 0 0 -10 0.96A284 284 0 0 0 24.36 44a8.92 8.92 0 0 0 -4.78 3.2 9.38 9.38 0 0 0 -0.98 5.14c0.2 45.32 2.56 91.1 7 136.28 -5.5 8.8 -9.88 16.18 -13.7 23.1a11.16 11.16 0 0 0 -2 8 36.98 36.98 0 0 0 0.1 9.52c2.66 10 21.22 10.5 31.7 11.4a188 188 0 0 0 -16 23.26 19.64 19.64 0 0 0 -2.42 5.04 77.68 77.68 0 0 0 -0.14 8.52c-0.46 5.86 3.04 8 8.88 8.44 1.78 10.2 13.66 54.1 18.78 67.3a0.72 0.72 0 0 0 1.4 -0.38c-1.36 -5.04 -2.98 -10.12 -4.54 -15.02 -8.56 -26.86 -12 -43.64 -14.44 -51.82 0.48 0 15.46 0.7 21.78 0.94 -2.72 37.1 6.58 57.68 9.8 73.32 1.32 6.42 2.48 11.86 7.68 16.16 4.26 3.14 9.76 4 14.62 4.84 20.38 3.32 65.36 5.64 84.34 5.64a194.44 194.44 0 0 0 40.84 -3.68c16.82 -2.92 29.18 -8 42 -19.62a28.9 28.9 0 0 0 8.46 -12.7 81.78 81.78 0 0 0 3.26 -21.56 10.34 10.34 0 0 0 0 -4 5.24 5.24 0 0 0 -4.42 -3.24c-6.22 -0.88 -9.34 6.24 -16.96 14.74 -0.72 0.8 -2.42 2.54 -3.2 1.8 -1.6 -1.56 0.46 -13.3 0.7 -14.66a149.52 149.52 0 0 0 1.54 -15.46c3.44 0 -2.98 0.14 88 -2.32 -3.9 9.22 -21.38 53.12 -22.58 56.62 -0.24 0.74 0.8 2 1.7 0.5 2 -3.24 6.72 -18 23.22 -57.88a0.94 0.94 0 0 0 -0.92 -1.22c-24 0.76 -85.24 2.7 -89.32 2.94a126.36 126.36 0 0 0 0.44 -17.44c45.02 -0.94 115.78 -2 127.04 -4 -4.56 12.92 -23.06 67.62 -24.36 72.18a0.6 0.6 0 0 0 1.14 0.36c3.62 -9.12 24.48 -72.54 24.54 -72.76 3.38 -0.84 6 -1.4 8 -4.36a9.7 9.7 0 0 0 1.76 -6.16c-0.68 -14.3 -7.12 -20.58 -17.88 -38.58 3.48 -0.6 16.56 -2.94 17.22 -3.02 2.66 -0.34 6 -0.76 7.54 -2.96a10.58 10.58 0 0 0 1.04 -5.78zM306.6 147.36c4.82 -72 8.32 -126.84 8.38 -127.7 0.24 -3.3 0.86 -4.68 3.62 -4.52a22.68 22.68 0 0 1 3.64 0.64c8.28 1.84 14.74 2.7 26.24 6 14.26 4.18 23.74 7.76 26.66 8.74 2.52 0.84 5.38 1.8 6.2 4.2 1.38 5.8 -0.36 77.56 -6.98 143.42a40.26 40.26 0 0 1 -1.44 9.88 4.82 4.82 0 0 1 -2.18 2.72c-2.3 1.14 -2.76 -0.16 -21.3 -10 -34.78 -18.08 -39.44 -20 -41.44 -23.5 -1.88 -2.88 -1.62 -6.6 -1.4 -9.88zm-1.14 -10c-0.92 12.9 -2 17.7 2.2 22.56 3.36 3 -0.46 0.8 56 30.66a15.28 15.28 0 0 0 4.8 2.14c3.58 0.5 5.08 -2 6.78 -4.96 3.2 6.8 10.36 21.64 12.46 28 0.8 2.4 0.68 4.48 -0.94 5.6s-4.4 1.28 -9.66 2.2c-33.46 6 -38.78 5.7 -56 5.82 -4.94 0 -8.56 -0.92 -11.56 -4.92 -4.16 -4.94 -7.1 -11.02 -10.44 -16.5 -8.92 -14.48 -15.78 -15.72 -30.22 -15.52 -10.72 0.16 -61.34 -0.8 -118.18 1.48a21.2 21.2 0 0 0 1.84 -17.1c-2.44 -5.88 -9.3 -7.88 -10.58 -13.7 -0.42 -2.96 1.74 -5.74 3.48 -8a1.12 1.12 0 0 0 0 -1.56c-0.94 -0.88 -9.62 0.7 -12.36 -5.46a222.44 222.44 0 0 1 60.16 -10.34c-0.12 3.32 -0.36 13.34 -0.38 14.26 -6.74 0.88 -16.6 3.82 -20.14 9.58a3.28 3.28 0 0 0 1.64 4.4 10.44 10.44 0 0 0 3.4 0.56 88.16 88.16 0 0 1 13.38 -0.68c28.76 -0.16 33.86 0.8 33.14 -4 -0.56 -3.8 -5.02 -5.58 -8.56 -6.94a57.84 57.84 0 0 0 -12 -3.08c0 -4.7 -0.28 -9.7 -0.16 -14.28a238.14 238.14 0 0 1 26.16 1.52 46.6 46.6 0 0 0 -1.14 7.84 5.84 5.84 0 0 0 3.08 4.8c2 1.32 4.3 2.56 6.52 3.74a17.74 17.74 0 0 0 -1.5 13.76c-0.44 -0.12 -0.86 -0.28 -1.2 -0.4a0.96 0.96 0 0 0 -1.62 0.74c0.24 2 1.78 4.44 0 5.56 -0.7 0.44 -2 0.76 -2.46 2 -1.08 3 3.68 4.64 6.74 3.64 3.84 -0.9 4.54 -2.72 4 -5.54 -1.28 -6.34 -1.04 -7.54 -2.26 -7.2 -0.88 0.24 -0.32 1.22 -1.54 1.44a21.46 21.46 0 0 1 -0.68 -7.2 17.24 17.24 0 0 1 1.9 -6c6.78 3.52 16.74 8.56 23.68 11.74a11.28 11.28 0 0 0 4.76 9.7 2.48 2.48 0 0 1 -0.74 0.12c-0.94 -0.52 -1.68 0.74 -1.02 1.54a24.46 24.46 0 0 0 2 2.38l-0.78 0.52c-2.82 2.34 -2.16 5.22 0.18 5.88 3.88 0.52 8.24 -2.86 7.18 -6.86a27.6 27.6 0 0 0 -3.42 -6.12 0.28 0.28 0 0 0 -0.14 -0.22 0.84 0.84 0 0 0 -1.6 0.42 2.16 2.16 0 0 1 -0.28 1.28 11.28 11.28 0 0 1 -4.82 -8c0.54 0.24 12.16 5.46 12.74 5.46a0.94 0.94 0 0 0 0.8 -0.46 20.4 20.4 0 0 0 2.48 -2.66c1.68 -1.82 3.86 -4 5.72 -5.72a11.68 11.68 0 0 0 2.64 -2.68c0.62 -1.62 0.4 -1.46 1.2 -8.36 1.28 -7.38 0.68 -9.34 1.12 -9.76a0.88 0.88 0 0 0 0 -1.26c-0.28 -0.28 0 0 -5.36 -1.46 0.2 -2.44 0.4 -5.02 0.64 -7.72a13.5 13.5 0 0 0 2.14 -2 108 108 0 0 1 16.78 5.32zM166 68.66a79.5 79.5 0 0 1 20.78 -2.38 15.14 15.14 0 0 1 6.46 0.7 1.1 1.1 0 0 1 -0.12 2c-3.2 0.58 -11.2 -1.48 -26.64 1.5a0.92 0.92 0 0 1 -0.88 -0.18 0.98 0.98 0 0 1 0.4 -1.64zm0 -8.88c1.24 -0.22 13.44 -2.36 15.42 -2.52a1.18 1.18 0 0 1 0.34 2.32c-1.5 0.36 -0.6 0.18 -15.38 2.1a0.96 0.96 0 0 1 -0.38 -1.9zm15.24 24.8c11.74 -0.92 14.62 -1.26 14.96 0.34a1.1 1.1 0 0 1 -0.2 1.08c-0.36 0.6 -2.76 0.74 -3.64 0.66 -13.34 0.16 -17.88 1.6 -25.2 2.1a1.02 1.02 0 0 1 -0.34 -2 96.38 96.38 0 0 1 14.5 -2.18zm-13.66 -7.58a29.76 29.76 0 0 1 9.58 -1 6.74 6.74 0 0 1 3.46 0.64 1.1 1.1 0 0 1 -0.42 1.76 10 10 0 0 1 -3.1 0 57.08 57.08 0 0 0 -9.14 0.46 0.9 0.9 0 0 1 -0.38 -1.86zM230.86 132c-0.28 1.68 -0.54 3.38 -0.82 5.06a233.72 233.72 0 0 0 -97.54 9.2 35.86 35.86 0 0 1 -0.5 -3.7c30.66 -11.5 67.24 -14.24 98.86 -10.56zM200 85.76v-5.02a1.04 1.04 0 0 1 2 0v5.18a1.1 1.1 0 0 1 -2 -0.16zm13.04 -4.72s5.54 12.68 5.66 12.92c1.46 2.88 0.78 3.48 -1.14 4.78A138.74 138.74 0 0 0 231.82 126c-0.12 0.8 -0.26 1.58 -0.38 2.38a101.1 101.1 0 0 1 -16 -28.2 6 6 0 0 1 -3.58 1.48 7.3 7.3 0 0 1 -6.62 -7.24 6.26 6.26 0 0 1 4.76 -6.26c-2.4 -5.62 2 -8.96 3.04 -7.12zm29.8 41.76c0.16 5.34 4.44 6.76 7.54 4.62 5.22 -3.64 4 -6.18 4.34 -2.8a4.64 4.64 0 0 0 2.12 3.8 5.06 5.06 0 0 0 4.98 -1.14 13.14 13.14 0 0 0 5.2 -6.86 156.22 156.22 0 0 0 17.72 -3.06c0 1.04 -0.68 12.16 -0.4 15 -26.14 3.74 -33.5 4.44 -35.6 4.9 -1.32 0.3 -1.12 1.5 -0.4 1.82 10.28 4.72 20.74 9.48 31.1 14a50.62 50.62 0 0 0 -3.06 18.56 433.14 433.14 0 0 1 -41.48 -20.16 10 10 0 0 1 -4.26 -3.12 6.64 6.64 0 0 1 0 -4.18l3.46 -21.02c3.02 0 5.9 -0.16 8.74 -0.36zm-6 -1.58a40.36 40.36 0 0 1 6.58 -2.64 9.58 9.58 0 0 0 -0.56 2.26c-1.88 0.14 -3.9 0.28 -5.92 0.38zm9.46 -4.4c2.22 -3.26 5.88 -7.34 7.78 -3.88 2.46 4.44 -1.54 12.56 -6.44 13.64 -3.92 0.26 -3.88 -6.34 -1.24 -9.76zm10.88 0a9.68 9.68 0 0 1 4.22 -4.88c2.68 -0.84 4.54 3.36 4.5 5.84a9.86 9.86 0 0 1 -2.74 6.22c-1.16 1.48 -3.88 4 -5.62 2.86a3.54 3.54 0 0 1 -1.18 -2.92 17.06 17.06 0 0 1 0.92 -7.18zm23.38 34.88c-9.46 -4.36 -18.92 -8.68 -28.2 -12.88 4.18 -0.6 8.38 -1.16 12.54 -1.72 6.84 2.4 14.26 4.64 23.86 7.2 -4.6 4.32 -5.4 4.68 -8.1 7.34zm9.12 -5.82c-0.82 4.16 -0.54 4 -1.62 11.78a11.2 11.2 0 0 1 -0.78 4.28 16 16 0 0 1 -2.76 2.56c-3.36 3.08 -4.34 4.34 -6.44 6.48a48 48 0 0 1 3.42 -17.84c2.3 -1.74 8.04 -7.14 8.28 -7.32zm-5.08 -4.44c-2.76 -0.72 -5.54 -1.46 -8.3 -2.22l0.24 -3.66 8.6 -1.16zM194.86 152c-0.48 -0.72 -0.34 2.44 -0.34 -14.26q3.6 -0.12 7.2 -0.12c-0.38 12 1.34 19.5 -2.66 19.5a5.18 5.18 0 0 1 -4 -0.96 5.36 5.36 0 0 1 -0.6 -3.3 0.56 0.56 0 0 0 0.4 -0.86zm4.46 7c2.78 0 4 -2.3 4.26 -5.08 5.54 0.96 11.8 2 16.54 5.4a5.8 5.8 0 0 1 2.28 3.22c0 2.38 -18.58 0.6 -41.58 2a16.32 16.32 0 0 1 -5.12 0.16 2.32 2.32 0 0 1 -1.5 -1.08c-0.3 -0.68 0 -1.32 0.72 -2 4 -4.86 10.82 -6.52 18 -8.28 0.08 3.7 0.92 5.68 6.4 5.68zm36.56 11.36a4.44 4.44 0 0 0 3.6 0.18c0.74 5.36 1.38 6.52 0.6 7.3 -2.46 2 -6.8 1.14 -6.92 0 0 -0.18 0.26 -0.52 0.5 -0.66a6 6 0 0 0 2.22 -1.52c1.26 -1.66 0.4 -3.44 0 -5.28zm34 10.32c-0.24 -0.34 -0.82 -1.08 -1.38 -1.72a3.56 3.56 0 0 0 2.46 -1.62c0.4 0.74 1.12 2 1.78 3.2 3 4.78 -6.74 7.74 -4.82 4.16a5.02 5.02 0 0 1 1.64 -1.6 1.72 1.72 0 0 0 0.26 -2.4zm22 -54.24c-0.36 0.52 -3.58 3.14 -5.3 5.34 -0.1 -3.76 0.96 -12.3 0.5 -14.74a51.88 51.88 0 0 1 5 -3.6c-0.08 13.14 -0.08 12.36 -0.36 13.02zm-2 -13.42a17.26 17.26 0 0 0 -3.28 3c-0.16 0 -15.86 2.14 -18.92 2.54a8.16 8.16 0 0 0 -0.16 -3.12zM108.34 70.54c31.66 -21.88 95.84 -34.18 150.28 -17.58A187.16 187.16 0 0 1 284 63.54a27.3 27.3 0 0 1 5.28 2.82c1.64 1.38 1.42 3.82 1.24 6 -0.42 4.56 -0.12 5.18 -3.24 39.4l-9.14 1c0.18 -2.92 2.32 -37.1 2.32 -37.1 0.4 -6.24 -0.66 -6 -12.58 -11.56A171.5 171.5 0 0 0 240 53.86c-0.68 -0.14 0 0.14 0 13.38v51.22c-0.84 0.38 -1.76 0.8 -2.66 1.24 -0.12 -69.7 0.48 -65.06 0 -65.16a157.82 157.82 0 0 0 -31.8 -4 180.74 180.74 0 0 0 -43.18 4.16c0.12 2.52 0.22 53.22 0 55.26a1.06 1.06 0 0 1 -2 0c0 -0.52 0 -50.64 0.12 -54.92 -18.74 4.32 -34.18 11.56 -43.2 17.88 -1.14 0.78 -0.88 1.52 -0.8 2.68 0 0 2.38 39.56 2.94 47.4a24 24 0 0 0 -7.62 -2c-1.22 -16.36 -2.56 -33.52 -3.46 -50.46zm20.3 66.24c1.38 4.22 0.38 8.8 2.5 12.86s6.56 5.38 11.26 5.7a13.06 13.06 0 0 0 -2.78 7.06 0.42 0.42 0 0 0 -0.58 0.18 8.9 8.9 0 0 1 -3.58 1.3 5.52 5.52 0 0 1 -3.8 -1.2 1.04 1.04 0 0 0 -1.44 0.38c-1.22 2.12 6.58 5.22 9.48 0.52 0.98 6.26 8.76 8.74 10.94 14.82 2 6.88 -1.42 14.54 -5.4 19.34a19.34 19.34 0 0 1 -11.4 7.52l-7.18 -12.8c5.72 -1 10.8 -5.08 9 -10.56 -2.98 -8.58 -14.4 -9.68 -17.16 -19.66a39.34 39.34 0 0 1 0 -10.62c0.32 -7.2 -4.2 -16.18 -11.34 -16.52a10.26 10.26 0 0 0 -6.62 3.16c-0.32 -0.4 -2.56 -3.74 -7 -9.58 12.96 -9.76 30.24 -6.14 35.1 8.1zm25.24 86a1.26 1.26 0 0 0 0.92 0.6c2 0.26 4.98 0.62 5.88 2.9a2 2 0 0 1 -0.54 2.48 13.78 13.78 0 0 1 -12.18 -0.26c-0.28 -0.22 0.14 -1.14 0.12 -1.52 3.36 -12 -4 -7.72 6.98 -8.98 -0.78 4 -1.58 4.1 -1.18 4.84zm3.08 -4.24h3.74a25.82 25.82 0 0 0 -1.54 3.78c-3.96 -1.62 -3.16 0.82 -2.2 -3.72zm15.4 3.68h-3.12c0.32 -1.34 0.6 -2.64 0.86 -4h1.78a6.18 6.18 0 0 0 0.48 4.06zm8.9 22.6h-8.78a46 46 0 0 0 1.06 -4.58l8 -0.18a37.58 37.58 0 0 0 -0.28 4.82zm-7.42 -6.24 2.8 -13.18a4.26 4.26 0 0 0 1.5 -0.14c1.26 -0.46 0.74 -0.72 2.16 0.44 0.34 0.28 2.2 1.82 2.54 2l-1.04 10.66zm-0.14 -6.58c-0.22 1.06 -1.2 5.52 -1.46 6.72a59.28 59.28 0 0 0 -7.78 0.38c1.4 -4 3.38 -10.98 4.42 -15.22 6.7 -0.12 3.26 -0.3 6.18 1.22 0.22 0.04 0.32 -0.76 -1.36 6.9zm-1.9 8.48c-0.36 1.46 -0.62 2.92 -0.86 4.54h-8.82c1.34 -2.64 1.74 -4.64 2 -4.62a52.56 52.56 0 0 0 7.68 0zm-3.7 -18h-7.2a29.14 29.14 0 0 0 1 -4h7.36zm-7 8.4a4.34 4.34 0 0 0 1.1 -6 6.76 6.76 0 0 0 -0.62 -0.82h6c-2.16 7.26 -2.58 8.64 -7.06 21.18h-7.08c1.08 -2.88 3.5 -10.24 4.38 -12.96a14 14 0 0 0 3.28 -1.54zm0.9 -5.88zm-21.86 -0.58c0.4 0 0.78 -1.52 -5.38 14.14a63.76 63.76 0 0 0 -2.58 6.56c-2.34 0 -4.68 0.1 -7.02 0.2 1.5 -2.92 1.4 -3.46 4.54 -11.32 1.34 -3.22 2.84 -6.44 4.26 -9.72 2.04 -0.04 4.04 0 6.18 0zm-5.7 -1.24c0.6 -1.42 1.18 -2.86 1.72 -4.3 2.2 0 4.38 0.14 6.46 0.14 0.52 0 0 -0.26 -1.64 3.78 -2.2 -0.06 -4.38 0.06 -6.54 0.24zm7.86 1.24h4.3c-1.18 4.2 -2 5.26 0.96 6.78 0 0.2 -5.5 13.74 -5.58 14H134c0.24 -0.68 7.8 -19.74 8.3 -20.92zm0.66 -1.7a32.7 32.7 0 0 0 1.06 -3.7h2.84a7.48 7.48 0 0 1 0.14 3.68c-1.36 -0.18 -2.72 -0.16 -4.04 -0.12zm3.16 16.64c0.72 -1.72 3 -7.44 3.06 -7.6a18.24 18.24 0 0 0 6.56 0.78c-2.9 8.56 -3.46 10 -4.1 12.62h-8a34.16 34.16 0 0 0 2.48 -5.94zm1.24 -22.86a0.94 0.94 0 0 0 -0.92 0.82c-4.32 0 -7.74 0.26 -10.92 0.52a0.52 0.52 0 0 0 -0.58 0.62c-4.68 8.4 -11.5 26.12 -11.24 27.28a0.72 0.72 0 0 0 0.54 1c10.7 0.5 48.4 -0.26 80.9 -0.26 -6 11.04 -5.36 9.88 -5.44 10.34H120.32a33.4 33.4 0 0 1 -10 0c-2.76 -0.52 -5.5 -3.4 -2.56 -8 3.46 -5.48 10.12 -17.14 10.22 -17.32a3.26 3.26 0 0 0 1.88 -3.22c3.88 -6.62 3.4 -6 3.76 -6a1.04 1.04 0 0 0 0.74 -1.7c0.46 -0.72 0.7 -1.16 1.18 -1.86a0.3 0.3 0 0 0 -0.4 -0.42 7.34 7.34 0 0 1 -1.76 0.62c-0.18 -0.34 -0.38 -0.66 -0.56 -1.02a7.8 7.8 0 0 0 6.9 -7.9 45.06 45.06 0 0 0 4.5 -2.5 18 18 0 0 0 7.1 -2.72l5.24 -0.24a0.32 0.32 0 0 0 0.26 -0.44c-0.74 -1.4 -0.22 -1.1 -3.24 -0.98a26.98 26.98 0 0 0 3.36 -3.4 38.56 38.56 0 0 1 4 15.32v1.32c-1.16 0.08 -2.36 0.06 -3.58 0zM191.88 222h-3.66a0.86 0.86 0 0 0 -0.48 -0.66c-0.88 -0.32 -2 -0.72 -2.82 -0.98v-2.3L192 218c0 1.38 -0.12 2.72 -0.12 4zm0 4.98c-1.62 -0.74 -3.26 -1.44 -4.92 -2l0.68 -1.42h4.2c0.16 1.06 0.16 3.4 0.16 3.46zm-5.54 -0.76a42 42 0 0 0 5.66 3.16c0 3.08 0 6 0.14 8.92l-8.64 0.14s0.76 -8 0.86 -9.14c0.68 0.12 0.76 -0.42 2.02 -3.04zm-2.66 -6.16c-1.16 -0.36 -0.32 0 -0.76 -2h1.16c-0.08 0.74 -0.24 1.4 -0.36 2.04zm-0.44 20L192 240a43.68 43.68 0 0 0 0.22 4.86h-9.38c0.16 -0.86 -0.04 0.28 0.44 -4.74zm25.68 -18.06H202a30.74 30.74 0 0 0 -0.7 -4h7.6a27.22 27.22 0 0 0 0.02 4zm9.3 -0.14c-0.28 -1.3 -0.62 -2.6 -1 -3.88h3.06c-0.18 0.3 -0.58 1.04 -2.06 3.82zm3.5 -2.4a5.08 5.08 0 0 0 4.84 1.62 7.48 7.48 0 0 1 -7.1 2.7zm-3.12 6a8.2 8.2 0 0 0 10 -5.28 4.3 4.3 0 0 0 0.8 -0.9 0.84 0.84 0 0 0 -1.18 -1.12 4 4 0 0 1 -2.84 1.12 3.78 3.78 0 0 1 -2.74 -1.3c3.64 -6.86 7.14 -13.28 10.26 -19.86a163.48 163.48 0 0 1 14 11.46c-5.66 10.3 -42 77.28 -45.22 82.92a53.8 53.8 0 0 1 -8.84 -6.3c-1.02 -0.84 -2.42 -2 -2.48 -3.02a8.18 8.18 0 0 1 0.46 -2.16c1.72 -7.16 -0.34 -2 23.3 -46.76a25.4 25.4 0 0 0 6.88 -2c0.58 -0.12 0.22 -1.18 -0.34 -0.94a27.1 27.1 0 0 1 -5.6 1.18zM178 288.62c0.6 1 0.3 1.24 0.96 1.28s1.12 0 2.58 0c-1.5 0.4 -3 0.78 -4.52 1.12 -1.1 -2.88 -2.62 -4 -2.86 -8.2 -0.36 -5.2 3.44 -10.24 8.72 -9.74a27.8 27.8 0 0 1 7.12 2.5c-0.32 0.98 -0.6 2 -0.86 2.94 -12 0 -11.3 0 -11.42 0.16a11.08 11.08 0 0 0 -0.42 1.14c-0.2 0.64 0.62 0.4 11.4 0.4 -0.84 3.62 -0.94 3.86 2.3 6.82l-3.42 1.12h-9.3a0.3 0.3 0 0 0 -0.28 0.46zM193.72 240l14.86 -0.16 -2.58 5h-12.34a40.12 40.12 0 0 0 0.06 -4.84zm0 -1.68c0 -3.3 -0.16 -5.18 -0.18 -8.2a70.5 70.5 0 0 0 8 2.94c0.14 1.66 0.28 3.4 0.42 5.18zm9.52 -4.84c8.72 2.14 7.16 -0.26 7.64 2.2l-1.36 2.54h-6c-0.1 -1.72 -0.22 -3.3 -0.34 -4.78zm9.3 -0.88h-0.62c-0.8 -4.48 -0.96 -6.18 -1.3 -9.24h6.58c0.04 0.48 0.5 -0.54 -4.72 9.2zm-2 -10.62a14.68 14.68 0 0 0 -0.16 -1.64A15.4 15.4 0 0 0 210 218h6.32c0.16 1.34 0.38 2.68 0.6 4zm-0.16 10.62a31.44 31.44 0 0 1 -7.26 -1.16c-0.12 -1.22 -0.7 -6.52 -0.88 -8h6.92c0.08 2.12 0.54 5.86 1.1 9.12zm-8.92 -1.64a53.64 53.64 0 0 1 -7.88 -3.18c0 -1.46 0 -2.88 -0.12 -4.28h7.28s0.5 6.5 0.6 7.42zm-8 -8.88c0 -1.36 -0.12 -2.68 -0.22 -4h7.14a29.56 29.56 0 0 0 0.26 4zm-76.9 0.9c-1.04 2.66 0.94 4 1.18 5.28l-0.64 1.1c-2.3 1.04 -4.46 -1.08 -4.98 -3.46 -1.06 -3.52 -0.88 -6 0.52 -7.54a12.22 12.22 0 0 1 7.04 -2.8c0.78 -0.14 -0.26 -0.96 2.36 4.48a5.5 5.5 0 0 0 -5.66 2.9zm4.64 -0.7L118.88 226c-0.5 -0.86 -0.9 -1.62 -0.3 -2.44a3.48 3.48 0 0 1 2.44 -1.32zM99.82 141.2l-5.34 8.16a1 1 0 0 1 -1.7 -1.04c0.12 -0.22 4.5 -6.88 5.38 -8.22a1 1 0 0 1 1.66 1.1zm-78 -85.86a12.5 12.5 0 0 1 0.58 -5.7c1.28 -2.46 4.92 -3.22 7.48 -4.16a287.34 287.34 0 0 1 52 -14.38c5.02 -1.02 6.24 -0.14 6.64 5.86 0 0.26 5.88 88.48 5.9 88.74 -2.44 1.6 -2.48 2 -2.54 2s-0.18 -0.18 -0.4 -0.24 -0.24 0 -1.64 1.62c0 0 -5.32 -83.22 -5.54 -85.82 0.3 -6.54 -3.84 -5.26 -10.3 -4a219.68 219.68 0 0 0 -40 11.12c-2.7 0.98 -5.26 1.9 -5.9 4.8 -1.06 7.42 1.42 79.06 6.64 130.62 0.26 2.6 0.26 5.76 2 8s4.5 1.62 6.92 0.24c10.2 -5.68 33.12 -17.08 42.2 -22a10.42 10.42 0 0 0 5.88 -6.84 57.64 57.64 0 0 0 -0.32 -13.34 2 2 0 0 0 2.3 0 17 17 0 0 1 2.54 -1.36c1.28 18.86 2.92 22.1 -6.62 27.22 -31.38 16.8 -36.22 19.14 -52 27.5a5.18 5.18 0 0 1 -4.74 0.98 5 5 0 0 1 -2.26 -3.1 46.5 46.5 0 0 1 -1.38 -10c-5.1 -50.14 -7.4 -101.4 -7.4 -137.76zM49.66 94.6c-2.26 0.8 -15.64 6.64 -19 8.24 -0.38 -8.9 -1.2 -38.52 -1.24 -44.46a6.22 6.22 0 0 1 0.98 -4.6 10.3 10.3 0 0 1 4 -2c4.6 -1.72 10.38 -3.66 15.02 -5.14a180.1 180.1 0 0 0 0.24 47.96zm0.78 -48.28a154.56 154.56 0 0 1 20 -5.24c5.86 -1.06 9.28 -2.42 11.04 -1.16s0.8 0.56 3.4 40c-37.16 15.6 -31.44 13.34 -33.82 14.12a198 198 0 0 1 -0.62 -47.72zm-3.28 50.94c1 -0.36 2.12 -0.78 3.24 -1.24a0.58 0.58 0 0 0 0.32 0s26.38 -10.96 34.3 -14.3c0.24 3.72 0.76 11.54 0.76 11.54 -2.48 0.7 -5.38 1.64 -8.2 2.56 -15.36 5 -18.98 4.64 -30.38 9.64a80.58 80.58 0 0 0 -16 9.22q-0.26 -5.06 -0.48 -10.14c4.38 -1.66 16.34 -7.22 16.44 -7.28zm19.68 3.32c0.2 0 14.58 -4.14 19.06 -5.62l1.68 24.68a111.1 111.1 0 0 0 -16.56 7.54c0.04 -2.24 -3.02 -20.7 -4.18 -26.6zm-1.58 0.7c2.66 14.7 3.38 22 3.8 24.36 0.9 5.14 -0.86 1.46 -23.5 13.4a136 136 0 0 0 -12.5 7.14Q32 131.12 31.28 116a106.12 106.12 0 0 1 33.98 -14.72zm-13.7 36.9c0.18 6 2.64 42.16 3.84 47.8 -0.72 0.36 -8.88 4.6 -11.04 5.88 -2.64 1.58 -5.34 3.08 -6.76 0.34a23.36 23.36 0 0 1 -1.4 -8.2c-0.3 -3 -2.8 -32.98 -3 -35.7 1.28 -0.44 6.34 -4.3 18.36 -10.12zm3.06 21c-0.58 -7.18 -1.18 -14.6 -2.12 -21.46 14.44 -7.04 17.16 -6.62 18.2 -9l1.42 -0.7a253.06 253.06 0 0 0 3.48 47.62l-18.5 9.46c-0.4 -4.8 -0.42 -0.64 -2.48 -25.92zm20.96 4.64c-1.9 -16 -1.74 -22.26 -2.38 -36.32 7.12 -3.42 8.68 -3.8 14.5 -6.16l0.64 9.58c-5.5 6.34 -6.72 7.44 -6.64 8.5 0.14 1.56 0.22 1.32 8 10.34 0.24 3.46 0.48 5.52 0.76 11.66A8.16 8.16 0 0 1 86 169.88c-2.88 1.8 -6 3.42 -8.98 4.98 -0.3 -3.82 -1.02 -7.3 -1.44 -11.04zM25.74 190a102.64 102.64 0 0 0 2 13.38c1.22 4.3 3.44 6 7.72 4.8a16.5 16.5 0 0 0 4.24 -2.12c32.6 -17.08 36.3 -18.58 48.84 -25.62 13.52 -6.12 10.76 -12.68 9.58 -30.64a8.46 8.46 0 0 1 7.86 1.22c4.42 3.34 1.4 8.26 1.1 12.5A17.58 17.58 0 0 0 110 174.16c5.22 7.84 10.88 6.58 15.26 11.84a4 4 0 0 1 1.24 4c-0.22 0.48 -0.62 0.48 -1.2 0.6 -0.28 -0.52 -1.02 -0.5 -1.16 -0.22 -4 1.82 -7.8 4 -12 6a1.06 1.06 0 0 0 -0.38 1.4l0.28 0.52c-2.24 1.28 -6 6.96 -7.54 9.12 -0.68 1 -11.2 15.7 -11.68 16.42 -5.76 8.68 -6.96 7.88 -20.84 7.88a393.2 393.2 0 0 1 -42 -2.36c-6.56 -0.72 -14.64 -1.88 -18.18 -7.36s1.26 -9.54 13.94 -32zm12.98 49.06c-9.02 -0.8 -23.5 -1 -27.4 -9.6a30.18 30.18 0 0 1 -0.6 -7.38c4.18 7.68 17.36 8.36 25.34 9.18a375.42 375.42 0 0 0 43.52 1.72c10.66 0 9.66 -1.88 26.44 -24.9a42.12 42.12 0 0 1 6.8 -8.58c1.46 2.66 2.9 4.92 3.28 5.58a11.26 11.26 0 0 0 -4.58 2.42 51.74 51.74 0 0 0 -6.86 8.76c-17.06 23.68 -14.94 24.16 -26 24.2a360.26 360.26 0 0 1 -39.94 -1.34zm16.48 46.46 -22.54 -0.96a11.56 11.56 0 0 1 -6.56 -2c-1.54 -1.26 -1.62 -2.96 -1.68 -9.16 2.92 3.64 9.4 3.1 31.64 4 -0.34 2.04 -0.7 6.34 -0.86 8.18zm-14 -10.22a86 86 0 0 1 -10.66 -0.62c-3.12 -0.46 -6.26 -2.16 -5.66 -5.34a17.06 17.06 0 0 1 2.26 -4.76 198.44 198.44 0 0 1 16.12 -23.88c5.44 0.44 31.46 1.84 40.96 0.84a11.82 11.82 0 0 0 7.78 -5.3c18.26 -24.62 19 -28.32 24.84 -29.84a49.3 49.3 0 0 0 3.78 5.32 2.5 2.5 0 0 0 2 0.92 26.3 26.3 0 0 0 5.78 -2 7.3 7.3 0 0 1 -6.24 5.2c-0.4 0.16 -0.16 0.46 -0.58 -0.44 -0.98 -2 -1.18 -2.38 -1.54 -2.44a0.58 0.58 0 0 0 -0.66 0.48 15.7 15.7 0 0 0 -7.74 2.76c-2.72 2.24 -2.64 5.42 -2.2 8.24 0.58 3.68 2.34 7.08 6 7.32 -7.66 13.12 -9.84 16.56 -10.56 18.28 -2.14 5.22 -2.14 11.62 2.34 14.56 2.9 1.88 6.56 1.74 10 1.6l77.64 -0.74c-0.76 1.48 -4 7.46 -4.5 8.76 -13.54 -9.72 -23.5 6 -15.12 17.14 -22 4.8 -44.54 4.92 -66 -2.56 13.36 0.34 61.28 1.1 61.44 0.86s0 -0.28 -0.24 -1.24 1 0.34 -65.8 -1.36a90 90 0 0 1 -16.1 -8.48c44.4 1.4 77.42 1.52 81.1 1.56 0.54 0 0.34 -0.26 0.54 -1.36a0.3 0.3 0 0 0 -0.24 -0.34c-0.92 -0.18 -8.12 0.3 -83.8 -1.5 -7.48 -5.38 -10.38 -9.76 -16 -11.52s-12 1.66 -13.86 10.48c-5.02 -0.14 -10.08 -0.44 -15.16 -0.54zM239.84 322c-0.44 2.74 1.22 -6.82 -6.2 41.88 0 0.74 1.52 1.1 1.68 0.36 4 -19.58 4 -24 4 -24a3.06 3.06 0 0 0 1.36 0.74c4.26 1.26 8 -6.32 14.74 -13.66a6.52 6.52 0 0 1 5.68 -2.84c2.62 0.42 2.54 2.8 2.46 5.1a104 104 0 0 1 -2.28 17.74 23.66 23.66 0 0 1 -7.66 13.58 68.86 68.86 0 0 1 -24.72 15.62 181.88 181.88 0 0 1 -48.88 7.88 757.06 757.06 0 0 1 -89.72 -5.02c-8.26 -1.14 -16.36 -2.32 -20.1 -9.28 0 -0.32 -3 -10.58 -3.66 -12.88 -1.22 -5.72 -5.1 -16.24 -8.4 -36.18a172.14 172.14 0 0 1 -0.62 -37.04c0.42 -6.54 1.36 -14.36 7.62 -16.56 4.52 -1.12 8.62 1.9 12.3 5.08 31.6 28 75.4 29.46 115.3 16.1 1.28 1.08 7.7 6 9.56 6 0.86 0 7.7 -1.48 8.54 -1.66 11.28 -2.44 9.4 -0.98 11.18 -3.74 3.16 -4.82 6.26 -9.72 9.2 -14.42 4.9 -0.18 9.04 2.82 10.32 10.7 0.78 4.74 0.58 12.5 -1.7 36.5zm140.4 -50.24c1.4 10.28 -3.54 11.82 -14.64 12.58 -27.34 1.86 -26.28 1.52 -121.64 3.5a29.86 29.86 0 0 0 -1.64 -7.6c-0.18 -0.46 80.22 -1.3 120 -3.5 5.02 -0.22 14.86 -0.74 17.92 -4.9zm-2.64 -9.56c1.12 2.42 3.02 6.5 1.2 8.6a10.78 10.78 0 0 1 -5.6 2.72c-9.54 2 -39.36 2.82 -49.08 3s-70.34 1.6 -82.86 1.74a12 12 0 0 0 -8.88 -5.36l22.32 -36.44a60.5 60.5 0 0 0 4 8c-8.9 0.16 -8.56 0 -8.66 0.34 -0.3 0.72 -0.44 0.9 -0.32 1.1s25.64 0.18 26.6 -0.2a0.66 0.66 0 0 0 0.28 -0.24 0.58 0.58 0 0 0 0.46 -0.84c-5.52 -10.46 -10 -19.48 -12.7 -23.62 3.44 -5.42 5.04 -7.66 5.12 -7.88l0.6 0.4a213.42 213.42 0 0 1 14.6 23.6c4.96 9.2 2.68 5.18 6.82 14.5 0.68 1.52 1.16 2.96 0 3.72 -3.38 1.5 -45.14 0.76 -45.44 1.24 -5.74 9.26 -5.34 8.62 -5.22 8.82s40 0 48.14 -0.48c1.84 -0.14 4.36 -0.34 5.2 -2.62a27 27 0 0 0 0.34 -9.42c-0.48 -3.34 -12.58 -23.86 -15.56 -28.46 -1.52 -2.36 -7.68 -11.22 -8.2 -11.58 -1.36 -0.96 -1.04 -1.7 -3.36 -2.38 -1.12 -0.88 -8.46 -6.66 -9.44 -7.46 19.38 0 27.32 -1.68 36 8.8 -2.8 0 -5.76 -0.32 -5.84 2.74a12 12 0 0 0 2.52 5.88c9.62 16.96 14.4 23.74 21.34 34.32 4 6.12 6.26 8.86 15.1 8.86a108.64 108.64 0 0 0 31.22 -2.7c3.86 -0.68 7.6 -2.88 6.82 -6.72a12.64 12.64 0 0 0 -2.14 -4c-2.28 -3.42 -5.06 -8.28 -8.2 -12.42 0.92 -0.12 6.18 -0.94 7.88 -1.22 0.38 2.28 9.76 14.56 14.94 25.74zm-113.46 -23.86a40.58 40.58 0 0 0 2.88 6h-6.92a68.16 68.16 0 0 0 -4.44 -9.5l3.72 -6c1.14 2.36 3.66 7.32 4.76 9.58zm-4 -10.84c1.12 -1.82 2.22 -3.6 3.34 -5.34 5.1 8.78 6.18 12.66 12.12 22.42 -2.38 -0.12 -4.78 -0.18 -7.18 -0.2a31.7 31.7 0 0 0 -2.82 -6.28c-2.66 -5.56 -4.04 -8.1 -5.38 -10.52zM337.8 250a8.12 8.12 0 0 1 -4.42 0.96c-6.38 -0.3 -10 -6 -13.62 -11.02h2.54a13.1 13.1 0 0 0 1.44 2.34c3.52 4.88 8.04 8.64 14.06 7.72zm3.28 -10.6a11.52 11.52 0 0 1 -0.24 7.56 8 8 0 0 1 -4.66 1.64c-4.76 0.18 -8.22 -3.1 -11.12 -6.8a13.74 13.74 0 0 1 -1 -1.32c-0.86 -1.4 -1.32 0.22 17.02 -1.12zm0.78 9.04a12 12 0 0 0 0.86 -9.16c3.12 -0.26 6.3 -0.6 9.58 -1.02 0.18 0.32 2.72 3.34 6 8.48 1.06 1.68 2 3.42 3.28 5.06s2.34 3.52 1.02 5.06a8.42 8.42 0 0 1 -4.22 2 107.1 107.1 0 0 1 -34.2 2.66 11.56 11.56 0 0 1 -6.1 -2 20.2 20.2 0 0 1 -4 -4.8c-5.1 -7.48 -10 -15.14 -14.74 -22.82 -6 -10 -8.88 -14.48 -9.56 -16.6 -0.86 -2.64 1.5 -1.56 4.92 -2.36 8.8 11.5 11.4 25.76 23.76 26.9 7.54 15.26 19.24 14.88 23.4 8.56zm42.32 -17.16c-19.14 3.84 -46 8.42 -65.54 6.96 -16.3 -1.22 -16.8 -34.12 -39.3 -36.38a203 203 0 0 0 -23.8 -0.42c-2.28 -1.22 -2.24 -0.66 -12 -3.48 -0.38 0 -10.32 -3.04 -11.02 -2.66a0.6 0.6 0 0 0 -0.3 0.66c-0.86 1.38 -2.28 3.86 -3.18 5.46 -21.28 0 -42.84 0.32 -64 1 -16.16 0.52 -14 0 -13.58 1.74 0.14 0.52 20 -0.98 76.8 -1.14 -2 3.62 -6.7 12.64 -7.16 13.52 -41.76 0.12 -38.52 0.38 -38.84 0a2.46 2.46 0 0 0 -4.3 0.34c-0.7 0 -0.58 0 -0.6 -0.22 -0.16 -2.54 -3.4 -2.88 -4.94 0.3 -16.28 0.22 -15.12 0.28 -15.1 0A1.04 1.04 0 0 0 156 216c-0.98 0.14 -2 0.26 -2.96 0.34a33.56 33.56 0 0 0 -5.34 -17.5A34.78 34.78 0 0 0 150 195.42c39.44 -1.78 95.72 -1.02 117.78 -1.42 14.2 -0.26 20.88 0.78 28.7 12.58 3.7 5.54 6.6 11.72 10.6 17.06a16.44 16.44 0 0 0 8 6.5 24.74 24.74 0 0 0 7.02 0.82c23.54 0 40.52 -3.04 57.54 -6.18a44.98 44.98 0 0 0 6.3 -1.24 5.28 5.28 0 0 0 2.62 -1.54 20.68 20.68 0 0 1 0 3.52c0.08 4.04 -1.1 5.02 -4.38 5.72z" stroke-width="2"></path><path d="M369.38 34.78A258.36 258.36 0 0 0 326 23.08c-6.58 -1.18 -6.38 1.46 -6.72 4.54 -0.7 6.4 -1.52 22.2 -4 60.28 5.14 1.9 55.16 20.5 58.12 21.74 1.1 -18.8 2 -35.22 2.26 -52.22 -0.04 -19.14 1.88 -19.8 -6.28 -22.64zm-18.72 25.7c-2.3 0 -5.78 -2.8 -25.26 -7.18 -1.24 0 -0.96 -2.36 0.5 -2.16 7 1.16 20 4.3 25.28 6.98a1.24 1.24 0 0 1 -0.52 2.36zm-12.84 1.42c-0.68 0.78 -1.4 0.28 -11.52 -1.42a1.04 1.04 0 0 1 -0.6 -1.66c0.38 -0.54 0.18 -0.44 8.94 0.74 1.84 0 2.98 0.44 3.34 1.22a1.08 1.08 0 0 1 -0.16 1.22zm-8.24 -20.9c-3.24 -0.46 -1.76 -2.94 -0.36 -2.74 5.12 0.7 12.88 2.94 15.84 5.04a1.3 1.3 0 0 1 0.34 1.56c-1.3 2.44 -4.2 -2.22 -15.82 -3.86zm-3 -9.46c0.32 0 14.34 2.74 18.8 4a1.18 1.18 0 0 1 -0.4 2.28c-1.34 0 -10.7 -2.46 -18.6 -4.38a0.96 0.96 0 0 1 0.2 -1.9zm-0.6 13.08c3.56 0.96 5.54 1.46 6.74 1.76s3.28 0.66 2.86 2a1.26 1.26 0 0 1 -1.3 0.86c-0.66 0 -0.5 0 -5.3 -1.48 -3.26 -0.98 -4 -1.22 -4.3 -1.8a1.1 1.1 0 0 1 1.32 -1.34zm4.46 41.2c-4.4 -3.36 -7.22 -0.98 -7.36 -2.98a1 1 0 0 1 0.88 -1.06c5.02 -0.8 8.7 2 9.22 3.16s-0.78 2.64 -2.74 0.88zm8.34 -4c0 0.88 -0.62 5.5 -0.74 6a1.4 1.4 0 0 1 -2.72 -0.74c0.24 -1.7 0.58 -3.58 0.98 -5.52 -0.1 -1.56 2.68 -1.46 2.48 0.22zm6.32 -2.62c-1.32 1.86 -6.66 -2.58 -19.8 -3.74 -1.38 -0.12 -2.14 -0.18 -2.14 -1.16a1 1 0 0 1 1.02 -1.02c6 0.14 16 1.88 20.54 4.2a1.18 1.18 0 0 1 0.38 1.68zm25 -2c-0.88 0 -36.9 -8 -37.24 -8a27.82 27.82 0 0 0 -10.24 -1.08 1.04 1.04 0 0 1 -0.34 -2 30.32 30.32 0 0 1 11.88 0.88c38 7.72 36 7.2 37.1 7.86 1.02 0.1 1.4 2.24 -1.16 2.24zm-37.14 21.96c0.58 10.66 -0.62 44.94 -1.8 64 2.3 1.18 2.54 1.6 3.3 1.88 0 0 25.8 13.42 25.86 13.46 2.62 1.44 5.18 1.78 6.84 -0.68s1.5 -5.44 1.78 -8c0 0 3.58 -45.88 4.12 -54.96 -2.22 -0.74 -33.8 -13.24 -40.1 -15.7zm6.82 9.36c14.58 5.28 21.2 7.42 25.14 9.72a1.22 1.22 0 0 1 -0.56 2.3 28.34 28.34 0 0 1 -7.02 -2.42c-0.12 0 -14.38 -5.74 -18.44 -7.48a1.16 1.16 0 0 1 0.88 -2.12zm-1 18.56c0.78 0.18 2.4 0.78 6.22 2.2l1.12 0.4a33.08 33.08 0 0 1 6.24 2.62c1.1 1.14 0 3.2 -2.82 1.68 0 0 -9.58 -4 -11.54 -4.86a1.1 1.1 0 0 1 0.78 -2.04zM354 145.4c-1.36 0 -4.3 -1.34 -13.44 -5.48l-4.18 -1.92c-0.78 -0.36 -0.82 -1.76 0.58 -1.6a94.96 94.96 0 0 1 13.14 4.6 18 18 0 0 1 4.28 2 1.28 1.28 0 0 1 -0.38 2.4zm10.56 -16a70.56 70.56 0 0 1 -7.28 -2.86c-1.7 -0.74 -3.46 -1.5 -5.24 -2.16 -13.8 -5.08 -13.1 -3.82 -13.7 -4.88a1.24 1.24 0 0 1 1.4 -1.82c4.92 1.3 9.3 2.68 13.4 4.2a59.56 59.56 0 0 1 12.66 5.48c0.94 0.64 0.42 2.64 -1.32 2.08z" stroke-width="2"></path></g></svg>